<svg width="37" height="68" viewBox="0 0 37 68" fill="none" xmlns="http://www.w3.org/2000/svg">
<path fill-rule="evenodd" clip-rule="evenodd" d="M0.728099 1.31476C1.13027 0.936243 1.78233 0.936243 2.1845 1.31476L35.4619 32.6347C35.8641 33.0132 35.8641 33.6269 35.4619 34.0054C35.0597 34.3839 34.4077 34.3839 34.0055 34.0054L0.728099 2.68549C0.325925 2.30697 0.325925 1.69328 0.728099 1.31476Z" fill="#CED0D3"/>
<path fill-rule="evenodd" clip-rule="evenodd" d="M0.728099 66.6855C1.13027 67.064 1.78233 67.064 2.1845 66.6855L35.4619 35.3656C35.8641 34.9871 35.8641 34.3734 35.4619 33.9948C35.0597 33.6163 34.4077 33.6163 34.0055 33.9948L0.728099 65.3148C0.325925 65.6933 0.325925 66.307 0.728099 66.6855Z" fill="#CED0D3"/>
</svg>
