<svg width="17" height="18" viewBox="0 0 17 18" fill="none" xmlns="http://www.w3.org/2000/svg">
<path d="M16.7676 14.834L13.4473 11.5137C13.2923 11.3587 13.1042 11.2812 12.8828 11.2812H12.3516C13.3255 10.0417 13.8125 8.625 13.8125 7.03125C13.8125 5.76953 13.5026 4.61849 12.8828 3.57812C12.263 2.51562 11.4219 1.67448 10.3594 1.05469C9.31901 0.434896 8.16797 0.125 6.90625 0.125C5.64453 0.125 4.48242 0.434896 3.41992 1.05469C2.37956 1.67448 1.54948 2.51562 0.929688 3.57812C0.309896 4.61849 0 5.76953 0 7.03125C0 8.29297 0.309896 9.45508 0.929688 10.5176C1.54948 11.5579 2.37956 12.388 3.41992 13.0078C4.48242 13.6276 5.64453 13.9375 6.90625 13.9375C8.5 13.9375 9.91667 13.4505 11.1562 12.4766V13.0078C11.1562 13.2292 11.2337 13.4173 11.3887 13.5723L14.709 16.8926C14.8639 17.0475 15.0521 17.125 15.2734 17.125C15.4948 17.125 15.6829 17.0475 15.8379 16.8926L16.7676 15.9629C16.9225 15.8079 17 15.6198 17 15.3984C17 15.1771 16.9225 14.9889 16.7676 14.834ZM6.90625 11.2812C6.13151 11.2812 5.41211 11.0931 4.74805 10.7168C4.10612 10.3405 3.59701 9.83138 3.2207 9.18945C2.8444 8.52539 2.65625 7.80599 2.65625 7.03125C2.65625 6.25651 2.8444 5.54818 3.2207 4.90625C3.59701 4.24219 4.10612 3.72201 4.74805 3.3457C5.41211 2.9694 6.13151 2.78125 6.90625 2.78125C7.68099 2.78125 8.38932 2.9694 9.03125 3.3457C9.69531 3.72201 10.2155 4.24219 10.5918 4.90625C10.9681 5.54818 11.1562 6.25651 11.1562 7.03125C11.1562 7.80599 10.9681 8.52539 10.5918 9.18945C10.2155 9.83138 9.69531 10.3405 9.03125 10.7168C8.38932 11.0931 7.68099 11.2812 6.90625 11.2812Z" fill="#818285"/>
</svg>
