<svg width="147" height="29" viewBox="0 0 147 29" fill="none" xmlns="http://www.w3.org/2000/svg">
<g filter="url(#filter0_d)">
<path fill-rule="evenodd" clip-rule="evenodd" d="M57.5769 7.77778C57.5769 6.22222 56.8094 5.44444 55.2745 5.44444H48.7512C47.2163 5.44444 46.4488 6.22222 46.4488 7.77778V9H39.5418V7.77778C39.5418 5.05556 40.1429 3.08519 41.3453 1.86667C42.5732 0.622222 44.5302 0 47.2163 0H56.8094C59.4955 0 61.4397 0.622222 62.6421 1.86667C63.87 3.08519 64.4839 5.05556 64.4839 7.77778V9H57.5769V7.77778ZM46.4488 12V20.2222C46.4488 21.7778 47.2163 22.5556 48.7512 22.5556H55.2745C56.8094 22.5556 57.5769 21.7778 57.5769 20.2222V12H64.4839V20.2222C64.4839 22.9444 63.87 24.9278 62.6421 26.1722C61.4397 27.3907 59.4955 28 56.8094 28H47.2163C44.5302 28 42.5732 27.3907 41.3453 26.1722C40.1429 24.9278 39.5418 22.9444 39.5418 20.2222V12H46.4488ZM36.0663 9L38.3726 0.388889H30.8899L28.9074 9H36.0663ZM28.2166 12H35.2628L31.0818 27.6111H23.791L19.5417 12H25.3113L26.8608 17.8889L28.2166 12ZM24.5219 9L22.2561 0.388889H16.1165L13.8507 9H24.5219ZM10.1559 12L11.5118 17.8889L13.0613 12H18.8309L14.5816 27.6111H7.29079L3.10975 12H10.1559ZM9.46524 9L7.48266 0.388889H0L2.30627 9H9.46524ZM68.3392 12V27.6111H75.2462V19.4444H80.6184L85.0313 27.6111H92.5139L87.7173 19.0556C89.2523 18.6667 90.365 17.8759 91.0558 16.6833C91.7346 15.553 92.0918 13.9919 92.1273 12H85.2104C85.105 13.3333 84.3418 14 82.9208 14H75.2462V12H68.3392ZM85.2231 9V8.16667C85.2231 6.61111 84.4557 5.83333 82.9208 5.83333H75.2462V9H68.3392V0.388889H84.4557C87.1418 0.388889 89.086 1.01111 90.2883 2.25556C91.5162 3.47408 92.1302 5.44445 92.1302 8.16667V9H85.2231ZM95.957 12V27.6111H110.922C113.813 27.6111 116 26.8593 117.484 25.3556C118.993 23.8259 119.748 21.5963 119.748 18.6667V12H112.841V18.6667C112.841 21 111.69 22.1667 109.387 22.1667H102.864V12H95.957ZM102.864 9H95.957V0.388889H110.922C113.813 0.388889 116 1.1537 117.484 2.68333C118.936 4.12947 119.689 6.23503 119.745 9H112.833C112.726 6.88889 111.577 5.83333 109.387 5.83333H102.864V9ZM125.651 12L129.924 20.4167V27.6111H136.831V20.4167L141.105 12H134.149L133.378 13.6111L132.606 12H125.651ZM131.17 9H124.128L119.755 0.388889H127.046L131.17 9ZM135.586 9H142.628L147 0.388889H139.709L135.586 9Z" fill="#EF6060"/>
</g>
<defs>
<filter id="filter0_d" x="0" y="0" width="147" height="29" filterUnits="userSpaceOnUse" color-interpolation-filters="sRGB">
<feFlood flood-opacity="0" result="BackgroundImageFix"/>
<feColorMatrix in="SourceAlpha" type="matrix" values="0 0 0 0 0 0 0 0 0 0 0 0 0 0 0 0 0 0 127 0"/>
<feOffset dy="1"/>
<feColorMatrix type="matrix" values="0 0 0 0 0 0 0 0 0 0 0 0 0 0 0 0 0 0 0.08 0"/>
<feBlend mode="normal" in2="BackgroundImageFix" result="effect1_dropShadow"/>
<feBlend mode="normal" in="SourceGraphic" in2="effect1_dropShadow" result="shape"/>
</filter>
</defs>
</svg>
